HIERARCHY
ROOT hip
{
  OFFSET 0 0 0
  CHANNELS 6 Xposition Yposition Zposition Zrotation Yrotation Xrotation
  JOINT abdomen
  {
    OFFSET 0 20.6881 -0.73152
    CHANNELS 3 Zrotation Xrotation Yrotation
    JOINT chest
    {
      OFFSET 0 11.7043 -0.48768
      CHANNELS 3 Zrotation Xrotation Yrotation
      JOINT neck
      {
        OFFSET 0 22.1894 -2.19456
        CHANNELS 3 Zrotation Xrotation Yrotation
        JOINT head
        {
          OFFSET -0.24384 7.07133 1.2192
          CHANNELS 3 Zrotation Xrotation Yrotation
          JOINT leftEye
          {
            OFFSET 4.14528 8.04674 8.04672
            CHANNELS 3 Zrotation Xrotation Yrotation
            End Site
            {
              OFFSET 1 0 0
            }
          }
          JOINT rightEye
          {
            OFFSET -3.6576 8.04674 8.04672
            CHANNELS 3 Zrotation Xrotation Yrotation
            End Site
            {
              OFFSET 1 0 0
            }
          }
        }
      }
      JOINT rCollar
      {
        OFFSET -2.68224 19.2634 -4.8768
        CHANNELS 3 Zrotation Xrotation Yrotation
        JOINT rShldr
        {
          OFFSET -8.77824 -1.95073 1.46304
          CHANNELS 3 Zrotation Xrotation Yrotation
          JOINT rForeArm
          {
            OFFSET -28.1742 -1.7115 0.48768
            CHANNELS 3 Zrotation Xrotation Yrotation
            JOINT rHand
            {
              OFFSET -22.5879 0.773209 7.07136
              CHANNELS 3 Zrotation Xrotation Yrotation
              JOINT rThumb1
              {
                OFFSET -1.2192 -0.487915 3.41376
                CHANNELS 3 Zrotation Xrotation Yrotation
                JOINT rThumb2
                {
                  OFFSET -3.37035 -0.52449 3.41376
                  CHANNELS 3 Zrotation Xrotation Yrotation
                  End Site
                  {
                    OFFSET -1.78271 -1.18214 1.43049
                  }
                }
              }
              JOINT rIndex1
              {
                OFFSET -7.75947 0.938293 5.60832
                CHANNELS 3 Zrotation Xrotation Yrotation
                JOINT rIndex2
                {
                  OFFSET -2.54057 -0.884171 1.56538
                  CHANNELS 3 Zrotation Xrotation Yrotation
                  End Site
                  {
                    OFFSET -1.62519 -0.234802 1.16502
                  }
                }
              }
              JOINT rMid1
              {
                OFFSET -8.24714 1.18213 3.41376
                CHANNELS 3 Zrotation Xrotation Yrotation
                JOINT rMid2
                {
                  OFFSET -3.10165 -0.590103 1.0647
                  CHANNELS 3 Zrotation Xrotation Yrotation
                  End Site
                  {
                    OFFSET -2.48547 -0.328903 0.83742
                  }
                }
              }
              JOINT rRing1
              {
                OFFSET -8.82822 0.546677 1.51678
                CHANNELS 3 Zrotation Xrotation Yrotation
                JOINT rRing2
                {
                  OFFSET -2.60934 -0.819778 -0.0198488
                  CHANNELS 3 Zrotation Xrotation Yrotation
                  End Site
                  {
                    OFFSET -2.33842 -0.294052 0.168128
                  }
                }
              }
              JOINT rPinky1
              {
                OFFSET -8.27202 -0.0477905 -0.4584
                CHANNELS 3 Zrotation Xrotation Yrotation
                JOINT rPinky2
                {
                  OFFSET -1.82734 -0.647385 -0.700984
                  CHANNELS 3 Zrotation Xrotation Yrotation
                  End Site
                  {
                    OFFSET -1.69225 -0.51767 -0.607171
                  }
                }
              }
            }
          }
        }
      }
      JOINT lCollar
      {
        OFFSET 2.68224 19.2634 -4.8768
        CHANNELS 3 Zrotation Xrotation Yrotation
        JOINT lShldr
        {
          OFFSET 8.77824 -1.95073 1.46304
          CHANNELS 3 Zrotation Xrotation Yrotation
          JOINT lForeArm
          {
            OFFSET 28.1742 -1.7115 0.48768
            CHANNELS 3 Zrotation Xrotation Yrotation
            JOINT lHand
            {
              OFFSET 22.5879 0.773209 7.07136
              CHANNELS 3 Zrotation Xrotation Yrotation
              JOINT lThumb1
              {
                OFFSET 1.2192 -0.487915 3.41376
                CHANNELS 3 Zrotation Xrotation Yrotation
                JOINT lThumb2
                {
                  OFFSET 3.37035 -0.52449 3.41376
                  CHANNELS 3 Zrotation Xrotation Yrotation
                  End Site
                  {
                    OFFSET 1.78271 -1.18214 1.43049
                  }
                }
              }
              JOINT lIndex1
              {
                OFFSET 7.75947 0.938293 5.60832
                CHANNELS 3 Zrotation Xrotation Yrotation
                JOINT lIndex2
                {
                  OFFSET 2.54057 -0.884171 1.56538
                  CHANNELS 3 Zrotation Xrotation Yrotation
                  End Site
                  {
                    OFFSET 1.62519 -0.234802 1.16502
                  }
                }
              }
              JOINT lMid1
              {
                OFFSET 8.24714 1.18213 3.41376
                CHANNELS 3 Zrotation Xrotation Yrotation
                JOINT lMid2
                {
                  OFFSET 3.10165 -0.590103 1.0647
                  CHANNELS 3 Zrotation Xrotation Yrotation
                  End Site
                  {
                    OFFSET 2.48547 -0.328903 0.83742
                  }
                }
              }
              JOINT lRing1
              {
                OFFSET 8.82822 0.546677 1.51678
                CHANNELS 3 Zrotation Xrotation Yrotation
                JOINT lRing2
                {
                  OFFSET 2.60934 -0.819778 -0.0198488
                  CHANNELS 3 Zrotation Xrotation Yrotation
                  End Site
                  {
                    OFFSET 2.33842 -0.294052 0.168128
                  }
                }
              }
              JOINT lPinky1
              {
                OFFSET 8.27202 -0.0477905 -0.4584
                CHANNELS 3 Zrotation Xrotation Yrotation
                JOINT lPinky2
                {
                  OFFSET 1.82734 -0.647385 -0.700984
                  CHANNELS 3 Zrotation Xrotation Yrotation
                  End Site
                  {
                    OFFSET 1.69225 -0.51767 -0.607171
                  }
                }
              }
            }
          }
        }
      }
    }
  }
  JOINT rButtock
  {
    OFFSET -8.77824 4.35084 1.2192
    CHANNELS 3 Zrotation Xrotation Yrotation
    JOINT rThigh
    {
      OFFSET 0 -1.70687 -2.19456
      CHANNELS 3 Zrotation Xrotation Yrotation
      JOINT rShin
      {
        OFFSET 0 -36.8199 0.73152
        CHANNELS 3 Zrotation Xrotation Yrotation
        JOINT rFoot
        {
          OFFSET 0.73152 -45.1104 -5.12064
          CHANNELS 3 Zrotation Xrotation Yrotation
          End Site
          {
            OFFSET -1.1221 -3.69964 12.103
          }
        }
      }
    }
  }
  JOINT lButtock
  {
    OFFSET 8.77824 4.35084 1.2192
    CHANNELS 3 Zrotation Xrotation Yrotation
    JOINT lThigh
    {
      OFFSET 0 -1.70687 -2.19456
      CHANNELS 3 Zrotation Xrotation Yrotation
      JOINT lShin
      {
        OFFSET 0 -36.8199 0.73152
        CHANNELS 3 Zrotation Xrotation Yrotation
        JOINT lFoot
        {
          OFFSET -0.73152 -45.1104 -5.12064
          CHANNELS 3 Zrotation Xrotation Yrotation
          End Site
          {
            OFFSET 1.1221 -3.69964 12.103
          }
        }
      }
    }
  }
}
MOTION
Frames:	9
Frame Time:	0.00833333
6.30701 85.3572 187.74 0.0 0.0 0.0 1.31607 -0.00470393 0.0362381 0.363466 -0.00359471 0.0629632 -6.65908e-15 -7.95139e-16 1.49088e-16 -1.97853e-14 3.18055e-15 3.44767e-16 -0.0 0.0 0.0 -0.0 0.0 0.0 -3.13217e-15 1.98008e-17 1.98785e-16 -6.84396e-14 5.03174e-16 1.78906e-15 -1.19827e-12 3.78088e-13 5.725e-14 -1.37378e-11 -2.63514e-13 2.22639e-13 -3.24012e-11 2.46081e-13 6.2975e-13 -5.59579e-11 4.23014e-13 1.0957e-12 -3.23943e-11 2.48878e-13 6.20208e-13 7.73091 5.47488 0.417314 -3.24007e-11 2.46195e-13 6.3293e-13 2.90554 0.965183 0.102902 -3.23904e-11 2.46294e-13 6.33725e-13 10.2786 0.731801 0.0259123 -3.24053e-11 2.47288e-13 6.45653e-13 2.22167 -0.733487 -0.20892 -3.22916e-15 2.21303e-17 -1.98785e-16 -7.1947e-14 3.23025e-16 1.98785e-16 -1.20399e-12 -3.42307e-13 2.54444e-14 -1.37355e-11 4.38718e-13 2.67167e-13 -3.24041e-11 2.11398e-13 6.36111e-13 -5.59563e-11 3.65764e-13 1.0965e-12 -3.24102e-11 2.13495e-13 6.42472e-13 -7.73091 5.47488 -0.417314 -3.24043e-11 2.11109e-13 6.2975e-13 -2.90554 0.965183 -0.102902 -3.24056e-11 2.11507e-13 6.28955e-13 -10.2786 0.731801 -0.0259123 -3.24035e-11 2.12302e-13 6.17028e-13 -2.22167 -0.733487 0.20892 -2.03217e-16 0.0 -3.88251e-19 1.46202 -6.13866 -0.134731 0.0018079 5.56154 0.0542049 -0.477713 0.574999 0.0659156 2.03217e-16 0.0 3.88251e-19 0.544511 -1.92085 0.00800842 0.00891172 -2.07861 0.0733958 0.453058 3.99724 -0.131572
8.98776 84.0208 175.303 -179.359 6.7624 -172.218 0.0231959 -1.6137 4.02226 1.28996 0.826482 1.19344 0.279408 -3.50693 -0.00807684 -0.0167345 10.6472 -2.11851 -0.0 0.0 0.0 -0.0 0.0 0.0 -1.56787e-14 3.67593e-14 3.40621e-14 21.6433 5.08985 2.1301 -6.8129 -3.87603 9.65777 0.0692289 5.8428 0.805817 1.65207e-10 -3.00967e-10 1.32249e-11 2.86352e-10 -5.13635e-10 1.86565e-11 1.65214e-10 -3.00965e-10 1.32182e-11 7.73091 5.47488 0.417314 1.65209e-10 -3.0097e-10 1.32281e-11 2.90554 0.965183 0.102902 1.65219e-10 -3.00969e-10 1.32283e-11 10.2786 0.731801 0.0259123 1.65204e-10 -3.00969e-10 1.32392e-11 2.22167 -0.733487 -0.20892 -1.57304e-14 3.67595e-14 3.37596e-14 -21.9044 -16.2975 3.09612 1.63165 -0.532808 -2.73475 -1.96401 32.0122 -2.299 -1.28865e-10 2.21296e-11 -2.82849e-11 -2.18257e-10 3.58045e-11 -3.51468e-11 -1.28871e-10 2.21318e-11 -2.82768e-11 -7.73091 5.47488 -0.417314 -1.28864e-10 2.21296e-11 -2.82894e-11 -2.90554 0.965183 -0.102902 -1.28868e-10 2.21297e-11 -2.82911e-11 -10.2786 0.731801 -0.0259123 -1.28862e-10 2.21302e-11 -2.8302e-11 -2.22167 -0.733487 0.20892 -2.03217e-16 0.0 -3.88251e-19 2.78985 -1.17535 1.70052 0.035284 6.38384 0.279693 -0.413168 0.875445 -2.95068 2.03217e-16 0.0 3.88251e-19 1.62325 -12.0131 -1.16614 -0.0248896 5.12577 -0.113826 0.284836 7.44089 5.07846
8.9099 83.9982 174.091 -179.322 6.8448 -172.177 -1.05453 -3.28121 8.26224 2.2275 1.69377 2.39383 0.581905 -7.20942 -0.015151 0.858365 21.8585 -4.61101 -0.0 0.0 0.0 -0.0 0.0 0.0 -3.08119e-14 7.99715e-14 7.06555e-14 44.0884 10.448 4.44935 -12.6209 -7.61428 20.017 -0.0398518 12.0046 1.68449 3.91619e-10 -6.58175e-10 3.4213e-11 6.78675e-10 -1.12367e-09 5.00833e-11 3.91626e-10 -6.58175e-10 3.42095e-11 7.73091 5.47488 0.417314 3.91622e-10 -6.58182e-10 3.42162e-11 2.90554 0.965183 0.102902 3.91632e-10 -6.58179e-10 3.4216e-11 10.2786 0.731801 0.0259123 3.91617e-10 -6.5818e-10 3.42257e-11 2.22167 -0.733487 -0.20892 -3.08134e-14 7.99693e-14 7.04536e-14 -42.7925 -33.3063 7.33265 3.30127 -1.09212 -5.62675 2.33071 65.553 -9.73312 -2.41657e-10 4.73639e-11 -6.06564e-11 -4.07971e-10 7.65506e-11 -7.54103e-11 -2.41664e-10 4.73663e-11 -6.06466e-11 -7.73091 5.47488 -0.417314 -2.41656e-10 4.73643e-11 -6.0659e-11 -2.90554 0.965183 -0.102902 -2.41661e-10 4.7364e-11 -6.06616e-11 -10.2786 0.731801 -0.0259123 -2.41653e-10 4.73642e-11 -6.06713e-11 -2.22167 -0.733487 0.20892 -2.03217e-16 0.0 -3.88251e-19 3.8862 4.11827 3.65502 0.0630985 7.10863 0.520025 -0.304914 1.1433 -6.1433 2.03217e-16 0.0 3.88251e-19 2.33219 -22.6859 -2.54763 -0.00956556 12.7128 -0.321535 -0.588167 10.9732 10.728
8.79449 84.0343 172.844 -179.411 6.9077 -172.176 -1.89442 -4.73772 12.0312 3.04466 2.48265 3.45726 0.835215 -10.5208 -0.0245987 2.65872 31.7511 -7.35095 -0.0 0.0 0.0 -0.0 0.0 0.0 -4.07716e-14 1.10238e-13 1.01789e-13 63.7623 15.1836 6.59632 -16.6522 -10.308 29.4267 -0.305584 17.5142 2.52187 5.60423e-10 -9.03394e-10 3.84151e-11 9.70972e-10 -1.54175e-09 5.37779e-11 5.6043e-10 -9.03394e-10 3.84141e-11 7.73091 5.47488 0.417314 5.60427e-10 -9.03404e-10 3.84183e-11 2.90554 0.965183 0.102902 5.60437e-10 -9.03399e-10 3.84175e-11 10.2786 0.731801 0.0259123 5.60422e-10 -9.03401e-10 3.84262e-11 2.22167 -0.733487 -0.20892 -4.07327e-14 1.10234e-13 1.01676e-13 -58.2283 -48.1713 13.4363 4.74288 -1.58387 -8.20706 126.813 81.5582 -136.051 -3.21785e-10 6.5966e-11 -8.61268e-11 -5.42858e-10 1.06682e-10 -1.07634e-10 -3.21793e-10 6.59685e-11 -8.61155e-11 -7.73091 5.47488 -0.417314 -3.21785e-10 6.59666e-11 -8.61278e-11 -2.90554 0.965183 -0.102902 -3.21791e-10 6.5966e-11 -8.61312e-11 -10.2786 0.731801 -0.0259123 -3.2178e-10 6.5966e-11 -8.614e-11 -2.22167 -0.733487 0.20892 -2.03217e-16 0.0 -3.88251e-19 4.48705 8.71108 5.43123 0.0826296 8.02802 0.733161 -0.189661 1.46167 -8.98578 2.03217e-16 0.0 3.88251e-19 2.34654 -32.1399 -4.06094 0.0550392 19.5338 -0.516539 -1.9524 13.8891 15.8441
8.60005 84.123 171.609 -179.842 6.827 -172.191 -2.60894 -5.75682 14.588 3.62914 3.07928 4.17568 0.966746 -12.8544 -0.0397974 4.76583 38.5236 -9.78285 -0.0 0.0 0.0 -0.0 0.0 0.0 -3.77975e-14 1.08141e-13 1.19271e-13 77.354 18.4463 8.11401 -18.8799 -11.6649 36.0253 -0.597102 21.4064 3.15834 5.85206e-10 -8.68638e-10 6.52014e-13 1.01321e-09 -1.47997e-09 -1.18579e-11 5.85213e-10 -8.68638e-10 6.52014e-13 7.73091 5.47488 0.417314 5.85212e-10 -8.68649e-10 6.55194e-13 2.90554 0.965183 0.102902 5.8522e-10 -8.68644e-10 6.53604e-13 10.2786 0.731801 0.0259123 5.85206e-10 -8.68646e-10 6.61555e-13 2.22167 -0.733487 -0.20892 -3.77431e-14 1.08137e-13 1.19221e-13 -65.3972 -58.2709 20.8864 5.72157 -1.92058 -10.0055 154.862 61.8174 -164.793 -3.20255e-10 6.79875e-11 -9.43448e-11 -5.40681e-10 1.10276e-10 -1.19756e-10 -3.20263e-10 6.79899e-11 -9.43321e-11 -7.73091 5.47488 -0.417314 -3.20254e-10 6.79883e-11 -9.43448e-11 -2.90554 0.965183 -0.102902 -3.20261e-10 6.79876e-11 -9.43488e-11 -10.2786 0.731801 -0.0259123 -3.20248e-10 6.79875e-11 -9.43575e-11 -2.22167 -0.733487 0.20892 -2.03217e-16 0.0 -3.88251e-19 4.55023 11.5975 6.67155 0.0900089 9.43421 0.877491 -0.100741 1.91578 -10.9524 2.03217e-16 0.0 3.88251e-19 1.68988 -38.6 -5.40163 0.133884 24.4407 -0.65044 -3.16185 15.6764 19.3183
8.40973 84.1293 170.417 -180.207 6.7759 -172.205 -3.36808 -6.24213 15.4346 3.93297 3.41553 4.41143 0.928009 -13.8076 -0.0596093 6.06552 41.0817 -10.946 -0.0 0.0 0.0 -0.0 0.0 0.0 -8.95004e-15 5.08396e-14 1.16521e-13 82.8197 19.7279 8.62503 -19.5984 -12.0137 38.4988 -0.744395 23.0368 3.43854 3.60955e-10 -2.91018e-10 -1.48893e-10 6.22356e-10 -4.85952e-10 -2.65139e-10 3.6096e-10 -2.91016e-10 -1.48895e-10 7.73091 5.47488 0.417314 3.6096e-10 -2.91026e-10 -1.4889e-10 2.90554 0.965183 0.102902 3.60966e-10 -2.91021e-10 -1.48893e-10 10.2786 0.731801 0.0259123 3.60955e-10 -2.91023e-10 -1.48886e-10 2.22167 -0.733487 -0.20892 -8.92251e-15 5.08358e-14 1.16501e-13 -66.3304 -62.7307 25.6741 6.09998 -2.04988 -10.7084 157.23 53.1115 -167.311 -1.81885e-10 4.65933e-11 -1.0446e-10 -3.11762e-10 7.71501e-11 -1.49694e-10 -1.81893e-10 4.6595e-11 -1.04446e-10 -7.73091 5.47488 -0.417314 -1.81884e-10 4.65937e-11 -1.04461e-10 -2.90554 0.965183 -0.102902 -1.81891e-10 4.65933e-11 -1.04465e-10 -10.2786 0.731801 -0.0259123 -1.81878e-10 4.65933e-11 -1.04475e-10 -2.22167 -0.733487 0.20892 -2.03217e-16 0.0 -3.88251e-19 4.16203 12.1676 7.12643 0.0906393 11.5081 0.92735 -0.10468 2.45831 -11.7256 2.03217e-16 0.0 3.88251e-19 0.748686 -40.9243 -6.04879 0.177639 26.6827 -0.672863 -3.55568 16.1758 20.2764
8.19342 84.1378 169.245 -180.674 6.6637 -172.228 -4.20682 -6.36304 15.0524 4.0437 3.5663 4.30169 0.76834 -13.7754 -0.0826974 6.39673 40.6857 -10.9013 -0.0 0.0 0.0 -0.0 0.0 0.0 3.80086e-14 -4.54231e-14 9.93737e-14 82.5742 19.6097 8.37516 -19.4286 -11.8723 37.9929 -0.74087 23.0552 3.44037 -3.892e-11 6.67178e-10 -3.75758e-10 -7.38907e-11 1.16155e-09 -6.4814e-10 -3.89188e-11 6.67182e-10 -3.75762e-10 7.73091 5.47488 0.417314 -3.89161e-11 6.67174e-10 -3.75754e-10 2.90554 0.965183 0.102902 -3.89133e-11 6.67179e-10 -3.75759e-10 10.2786 0.731801 0.0259123 -3.89211e-11 6.67176e-10 -3.75752e-10 2.22167 -0.733487 -0.20892 3.79794e-14 -4.54245e-14 9.93582e-14 -65.6457 -63.5943 25.8965 6.06036 -2.03381 -10.6284 157.366 53.1103 -167.508 5.31538e-11 8.48304e-12 -1.14691e-10 7.74548e-11 1.77745e-11 -1.9017e-10 5.31474e-11 8.48378e-12 -1.14676e-10 -7.73091 5.47488 -0.417314 5.31553e-11 8.48294e-12 -1.14693e-10 -2.90554 0.965183 -0.102902 5.31503e-11 8.48295e-12 -1.14696e-10 -10.2786 0.731801 -0.0259123 5.31617e-11 8.48321e-12 -1.14709e-10 -2.22167 -0.733487 0.20892 -2.03217e-16 0.0 -3.88251e-19 3.51353 11.0904 7.0002 0.0911378 14.0596 0.909989 -0.190655 3.07352 -11.645 2.03217e-16 0.0 3.88251e-19 -0.189686 -40.3106 -6.04338 0.182572 27.0208 -0.607903 -3.25688 15.8138 19.4042
7.96277 84.159 168.085 -181.202 6.4867 -172.251 -5.05522 -6.3118 14.1623 4.05524 3.63304 4.05015 0.561545 -13.3674 -0.112206 6.32119 39.1124 -10.3728 -0.0 0.0 0.0 -0.0 0.0 0.0 7.97861e-14 -1.41437e-13 7.82598e-14 80.0547 18.8972 7.79479 -18.8849 -11.5149 36.2806 -0.675471 22.4408 3.3316 -4.33195e-10 1.53616e-09 -5.48701e-10 -7.59497e-10 2.65376e-09 -9.38096e-10 -4.33197e-10 1.53617e-09 -5.48708e-10 7.73091 5.47488 0.417314 -4.33193e-10 1.53616e-09 -5.48697e-10 2.90554 0.965183 0.102902 -4.33193e-10 1.53617e-09 -5.48704e-10 10.2786 0.731801 0.0259123 -4.33197e-10 1.53616e-09 -5.48696e-10 2.22167 -0.733487 -0.20892 7.97004e-14 -1.41436e-13 7.82322e-14 -65.001 -62.6998 23.5881 5.85214 -1.95957 -10.2335 156.694 56.9383 -166.839 2.90835e-10 -3.59885e-11 -8.32856e-11 4.75031e-10 -5.2791e-11 -1.61329e-10 2.9083e-10 -3.59887e-11 -8.32696e-11 -7.73091 5.47488 -0.417314 2.90837e-10 -3.5989e-11 -8.32885e-11 -2.90554 0.965183 -0.102902 2.90834e-10 -3.59886e-11 -8.32918e-11 -10.2786 0.731801 -0.0259123 2.90843e-10 -3.5988e-11 -8.33072e-11 -2.22167 -0.733487 0.20892 -2.03217e-16 0.0 -3.88251e-19 2.76663 9.29284 6.57829 0.0884676 16.8248 0.863095 -0.271799 3.89407 -11.1719 2.03217e-16 0.0 3.88251e-19 -1.11608 -38.5062 -5.78912 0.172783 26.5741 -0.510492 -2.71689 15.0475 17.8825
7.7231 84.185 166.95 -181.741 6.2439 -172.274 -5.83642 -6.27994 13.4868 4.05925 3.71709 3.86072 0.380522 -13.1933 -0.151499 6.42547 38.1331 -10.1007 -0.0 0.0 0.0 -0.0 0.0 0.0 9.30902e-14 -1.97991e-13 6.36111e-14 78.7017 18.3974 7.314 -18.4917 -11.2252 35.1327 -0.643533 22.1725 3.28342 -6.40646e-10 1.84614e-09 -5.3648e-10 -1.11843e-09 3.18191e-09 -9.12242e-10 -6.4065e-10 1.84615e-09 -5.3649e-10 7.73091 5.47488 0.417314 -6.40645e-10 1.84615e-09 -5.36477e-10 2.90554 0.965183 0.102902 -6.40646e-10 1.84615e-09 -5.36484e-10 10.2786 0.731801 0.0259123 -6.40649e-10 1.84615e-09 -5.36477e-10 2.22167 -0.733487 -0.20892 9.29784e-14 -1.97989e-13 6.35614e-14 -65.0695 -61.7685 21.7485 5.72437 -1.91424 -9.99201 155.995 59.6847 -166.092 4.37131e-10 -7.64669e-11 3.15066e-11 7.29029e-10 -1.19487e-10 1.66828e-11 4.37126e-10 -7.64673e-11 3.15225e-11 -7.73091 5.47488 -0.417314 4.37133e-10 -7.64671e-11 3.15034e-11 -2.90554 0.965183 -0.102902 4.3713e-10 -7.64664e-11 3.15002e-11 -10.2786 0.731801 -0.0259123 4.37138e-10 -7.64657e-11 3.14843e-11 -2.22167 -0.733487 0.20892 -2.03217e-16 0.0 -3.88251e-19 2.09768 7.70323 6.13628 0.0727874 19.5392 0.824936 -0.246865 5.04948 -10.7696 2.03217e-16 0.0 3.88251e-19 -2.02884 -37.2569 -5.69214 0.170437 26.4619 -0.435256 -2.34185 14.3638 16.8786
